<svg width="893" height="692" viewBox="0 0 893 692" fill="none" xmlns="http://www.w3.org/2000/svg">
<g id="Vector 72" clip-path="url(#clip0_0_1)">
<g id="Vector 72_2" filter="url(#filter0_di_0_1)">
<path d="M23.7897 0.626046L0 27.6504V669.139L23.3724 691.364H194.596L212.543 674.46H700.546L725.17 690.946H872.604L892.22 669.139V27.6504L865.822 0L611.856 0.208682L589.944 27.6504H310.414L294.45 0.626046H23.7897Z" fill="url(#paint0_linear_0_1)"/>
<path d="M23.7897 0.626046L0 27.6504V669.139L23.3724 691.364H194.596L212.543 674.46H700.546L725.17 690.946H872.604L892.22 669.139V27.6504L865.822 0L611.856 0.208682L589.944 27.6504H310.414L294.45 0.626046H23.7897Z" stroke="black" stroke-width="0.626046"/>
</g>
<g id="Editor Panel">
<path id="Vector 23" d="M85.6647 109.141L69.5962 124.896V509.08L85.6647 524.418H801.653L816.678 509.08V124.896L801.653 109.141H85.6647Z" fill="#011522" stroke="#085478" stroke-width="2.08682"/>
<path id="Button 2" d="M443.554 543.825L436.777 532.087H450.331L443.554 543.825Z" fill="#0581B4"/>
<g id="Button 1">
<rect x="431.66" y="86.29" width="23.7898" height="83.2641" rx="0.939069" stroke="#9747FF" stroke-width="0.208682" stroke-dasharray="2.09 1.04"/>
<g id="State=Pressed">
<path id="Polygon 2" d="M443.554 90.3593L450.331 102.098H436.777L443.554 90.3593Z" fill="#09B3F9"/>
</g>
<g id="State=Hover">
<path id="Polygon 2_2" d="M443.554 90.3593L450.331 102.098H436.777L443.554 90.3593Z" fill="#0799D5"/>
</g>
<g id="State=Default">
<path id="Polygon 2_3" d="M443.554 90.3593L450.331 102.098H436.777L443.554 90.3593Z" fill="#0581B4"/>
</g>
</g>
<g id="Group 25">
<g id="Group 17">
<path id="Vector 62" d="M722.04 548.208L715.988 536.104" stroke="#084966" stroke-width="3.13023"/>
<path id="Vector 61" d="M729.552 548.208L723.5 536.104" stroke="#084966" stroke-width="3.13023"/>
<path id="Vector 60" d="M737.065 548.208L731.013 536.104" stroke="#084966" stroke-width="3.13023"/>
<path id="Vector 59" d="M744.577 548.208L738.525 536.104" stroke="#084966" stroke-width="3.13023"/>
<path id="Vector 58" d="M752.09 548.208L746.038 536.104" stroke="#084966" stroke-width="3.13023"/>
<path id="Vector 57" d="M759.603 548.208L753.551 536.104" stroke="#084966" stroke-width="3.13023"/>
<path id="Vector 56" d="M767.115 548.208L761.063 536.104" stroke="#084966" stroke-width="3.13023"/>
<rect id="Rectangle 27" x="769.202" y="550.086" width="51.7531" height="2.50418" transform="rotate(180 769.202 550.086)" fill="#012435"/>
<rect id="Rectangle 26" x="765.654" y="536.73" width="51.7531" height="2.50418" transform="rotate(180 765.654 536.73)" fill="#012435"/>
</g>
<g id="Group 16">
<path id="Vector 62_2" d="M761.063 97.0372L767.115 84.9336" stroke="#084966" stroke-width="3.13023"/>
<path id="Vector 61_2" d="M753.551 97.0372L759.603 84.9336" stroke="#084966" stroke-width="3.13023"/>
<path id="Vector 60_2" d="M746.038 97.0372L752.09 84.9336" stroke="#084966" stroke-width="3.13023"/>
<path id="Vector 59_2" d="M738.525 97.0372L744.577 84.9336" stroke="#084966" stroke-width="3.13023"/>
<path id="Vector 58_2" d="M731.013 97.0372L737.065 84.9336" stroke="#084966" stroke-width="3.13023"/>
<path id="Vector 57_2" d="M723.5 97.0372L729.552 84.9336" stroke="#084966" stroke-width="3.13023"/>
<path id="Vector 56_2" d="M715.988 97.0372L722.04 84.9336" stroke="#084966" stroke-width="3.13023"/>
<rect id="Rectangle 27_2" width="51.7531" height="2.50418" transform="matrix(1 0 0 -1 713.901 98.9153)" fill="#012435"/>
<rect id="Rectangle 26_2" width="51.7531" height="2.50418" transform="matrix(1 0 0 -1 717.449 85.5597)" fill="#012435"/>
</g>
<g id="Group 15">
<path id="Vector 62_3" d="M164.232 548.208L170.284 536.104" stroke="#084966" stroke-width="3.13023"/>
<path id="Vector 61_3" d="M156.72 548.208L162.772 536.104" stroke="#084966" stroke-width="3.13023"/>
<path id="Vector 60_3" d="M149.208 548.208L155.259 536.104" stroke="#084966" stroke-width="3.13023"/>
<path id="Vector 59_3" d="M141.695 548.208L147.747 536.104" stroke="#084966" stroke-width="3.13023"/>
<path id="Vector 58_3" d="M134.183 548.208L140.234 536.104" stroke="#084966" stroke-width="3.13023"/>
<path id="Vector 57_3" d="M126.67 548.208L132.722 536.104" stroke="#084966" stroke-width="3.13023"/>
<path id="Vector 56_3" d="M119.157 548.208L125.209 536.104" stroke="#084966" stroke-width="3.13023"/>
<rect id="Rectangle 27_3" width="51.7531" height="2.50418" transform="matrix(1 0 0 -1 117.07 550.086)" fill="#012435"/>
<rect id="Rectangle 26_3" width="51.7531" height="2.50418" transform="matrix(1 0 0 -1 120.618 536.73)" fill="#012435"/>
</g>
<g id="Group 14">
<path id="Vector 62_4" d="M164.232 85.1423L170.284 97.2459" stroke="#084966" stroke-width="3.13023"/>
<path id="Vector 61_4" d="M156.72 85.1423L162.772 97.2459" stroke="#084966" stroke-width="3.13023"/>
<path id="Vector 60_4" d="M149.208 85.1423L155.259 97.2459" stroke="#084966" stroke-width="3.13023"/>
<path id="Vector 59_4" d="M141.695 85.1423L147.747 97.2459" stroke="#084966" stroke-width="3.13023"/>
<path id="Vector 58_4" d="M134.183 85.1423L140.234 97.2459" stroke="#084966" stroke-width="3.13023"/>
<path id="Vector 57_4" d="M126.67 85.1423L132.722 97.2459" stroke="#084966" stroke-width="3.13023"/>
<path id="Vector 56_4" d="M119.157 85.1423L125.209 97.2459" stroke="#084966" stroke-width="3.13023"/>
<rect id="Rectangle 27_4" x="117.07" y="83.2642" width="51.7531" height="2.50418" fill="#012435"/>
<rect id="Rectangle 26_4" x="120.618" y="96.6198" width="51.7531" height="2.50418" fill="#012435"/>
</g>
</g>
<g id="Group 26">
<g id="Group 17_2">
<rect id="Rectangle 29b" x="286.103" y="538.817" width="1.25209" height="18.1553" transform="rotate(90 286.103 538.817)" fill="#0799D5"/>
<rect id="Light G17" x="263.982" y="537.774" width="2.2955" height="19.1987" transform="rotate(90 263.982 537.774)" fill="#09B3F9"/>
</g>
<g id="Group 19">
<rect id="Rectangle 29b_2" width="1.25209" height="18.1553" transform="matrix(1 0 0 -1 44.0317 442.823)" fill="#0799D5"/>
<rect id="Light G19" width="2.2955" height="19.1987" transform="matrix(1 0 0 -1 42.9883 420.703)" fill="#09B3F9"/>
</g>
<g id="Group 18">
<rect id="Rectangle 28b" x="44.0317" y="189.692" width="1.25209" height="18.1553" fill="#0799D5"/>
<rect id="Light G18" x="42.9883" y="211.812" width="2.2955" height="19.1987" fill="#09B3F9"/>
</g>
<g id="Group 20">
<rect id="Rectangle 29b_3" width="1.25209" height="18.1553" transform="matrix(0 1 1 0 599.752 538.817)" fill="#0799D5"/>
<rect id="Light G20" width="2.2955" height="19.1987" transform="matrix(0 1 1 0 621.872 537.774)" fill="#09B3F9"/>
</g>
<g id="Group 21">
<rect id="Rectangle 29b_4" x="842.241" y="442.823" width="1.25209" height="18.1553" transform="rotate(180 842.241 442.823)" fill="#0799D5"/>
<rect id="Light G21" x="843.284" y="420.703" width="2.2955" height="19.1987" transform="rotate(180 843.284 420.703)" fill="#09B3F9"/>
</g>
<g id="Group 22">
<rect id="Rectangle 29b_5" width="1.25209" height="18.1553" transform="matrix(-1 0 0 1 842.449 189.692)" fill="#0799D5"/>
<rect id="Light G24" width="2.2955" height="19.1987" transform="matrix(-1 0 0 1 843.493 211.812)" fill="#09B3F9"/>
</g>
<g id="Group 23">
<rect id="Rectangle 29b_6" x="599.126" y="94.1156" width="1.25209" height="18.1553" transform="rotate(-90 599.126 94.1156)" fill="#0799D5"/>
<rect id="Light G23" x="621.246" y="95.159" width="2.2955" height="19.1987" transform="rotate(-90 621.246 95.159)" fill="#09B3F9"/>
</g>
<g id="Group 24">
<rect id="Rectangle 29b_7" width="1.25209" height="18.1553" transform="matrix(0 -1 -1 0 286.312 94.1156)" fill="#0799D5"/>
<rect id="Light G24_2" width="2.2955" height="19.1987" transform="matrix(0 -1 -1 0 264.191 95.1591)" fill="#09B3F9"/>
</g>
</g>
<g id="Group 27">
<path id="Vector 27" d="M845.58 145.764V232.993L832.12 246.871V287.564" stroke="#085478" stroke-width="1.04341"/>
<path id="Vector 26" d="M831.389 345.682V385.957L845.371 400.461V486.229" stroke="#085478" stroke-width="1.04341"/>
<path id="Vector 25" d="M109.662 552.903H229.863L243.74 536.104H391.592M499.272 536.104H641.697L655.679 553.112H782.662" stroke="#085478" stroke-width="1.04341"/>
<path id="Vector 24" d="M53.9443 345.16V385.853L40.7974 402.13V482.682" stroke="#085478" stroke-width="1.04341"/>
<path id="Vector 22" d="M40.2754 149.521V232.785L54.3614 246.453V287.668" stroke="#085478" stroke-width="1.04341"/>
<path id="Vector 21" d="M499.167 96.4111H642.428L656.931 79.0905H781.723" stroke="#085478" stroke-width="1.04341"/>
<path id="Vector 20" d="M108.306 79.8209H230.385L244.262 96.6198H388.566" stroke="#085478" stroke-width="1.04341"/>
<path id="Light Vector 19" d="M844.536 481.638V531.2C844.536 531.736 844.33 532.251 843.96 532.639L826.162 551.317C825.769 551.73 825.223 551.964 824.652 551.964H779.949" stroke="#0581B4" stroke-width="3.13023"/>
<path id="Light Vector 18" d="M777.862 80.1339H824.998C825.55 80.1339 826.079 80.3521 826.47 80.741L843.921 98.0947C844.315 98.4863 844.536 99.0189 844.536 99.5744V149.625" stroke="#0581B4" stroke-width="3.13023"/>
<path id="Light Vector 17" d="M41.8408 478.717V532.429C41.8408 532.979 42.0575 533.506 42.4438 533.897L59.6966 551.344C60.0886 551.741 60.6229 551.964 61.1804 551.964H110.184" stroke="#0581B4" stroke-width="3.13023"/>
<path id="Light Vector 16" d="M108.619 80.7599H60.6375C60.0923 80.7599 59.5687 80.9733 59.1788 81.3544L41.947 98.1969C41.5453 98.5896 41.3188 99.1276 41.3188 99.6893V151.503" stroke="#0581B4" stroke-width="3.13023"/>
</g>
<g id="Group 28">
<path id="Vector 63" d="M78.4648 169.032V132.722L95.3681 116.027H143.991" stroke="#085478" stroke-width="1.04341"/>
<path id="Vector 64" d="M84.4123 140.234V173.832L75.439 184.058V311.875" stroke="#085478" stroke-width="1.04341"/>
<path id="Vector 65" d="M101.942 121.87H297.268L309.372 140.026H386.897" stroke="#085478" stroke-width="1.04341"/>
</g>
<g id="Group 29">
<path id="Vector 63_2" d="M807.6 463.17V499.48L790.697 516.175H742.074" stroke="#085478" stroke-width="1.04341"/>
<path id="Vector 64_2" d="M801.653 491.968V458.37L810.626 448.145V320.327" stroke="#085478" stroke-width="1.04341"/>
<path id="Vector 65_2" d="M784.124 510.332H588.797L576.694 492.177H499.168" stroke="#085478" stroke-width="1.04341"/>
</g>
<g id="Light Group 30">
<path id="Vector 70" d="M570.433 497.498H558.016L567.824 512.732H580.241L570.433 497.498Z" fill="#085478" stroke="#085478" stroke-width="1.04341"/>
<path id="Vector 69" d="M550.608 497.498H538.191L548 512.732H560.416L550.608 497.498Z" fill="#085478" stroke="#085478" stroke-width="1.04341"/>
<path id="Vector 68" d="M530.783 497.498H518.367L528.175 512.732H540.591L530.783 497.498Z" fill="#085478" stroke="#085478" stroke-width="1.04341"/>
<path id="Vector 67" d="M510.75 497.498H498.333L508.141 512.732H520.558L510.75 497.498Z" fill="#085478" stroke="#085478" stroke-width="1.04341"/>
<g id="Vector 66">
<path d="M422.477 497.602L413.086 508.036H485.395L488.629 512.836H499.063L489.255 497.602H422.477Z" fill="#085478"/>
<path d="M75.439 438.754V502.715L90.7771 517.949H154.425M99.6461 508.036H413.086M413.086 508.036L422.477 497.602H489.255L499.063 512.836H488.629L485.395 508.036H413.086Z" stroke="#085478" stroke-width="1.04341"/>
</g>
</g>
<g id="Light Group 31">
<path id="Vector 70_2" d="M322.305 134.673H334.583L324.884 120.784H312.606L322.305 134.673Z" fill="#085478" stroke="#085478" stroke-width="1.04341"/>
<path id="Vector 69_2" d="M341.909 134.673H354.187L344.488 120.784H332.21L341.909 134.673Z" fill="#085478" stroke="#085478" stroke-width="1.04341"/>
<path id="Vector 68_2" d="M361.512 134.673H373.79L364.091 120.784H351.813L361.512 134.673Z" fill="#085478" stroke="#085478" stroke-width="1.04341"/>
<path id="Vector 67_2" d="M381.321 134.673H393.599L383.9 120.784H371.622L381.321 134.673Z" fill="#085478" stroke="#085478" stroke-width="1.04341"/>
<g id="Vector 66_2">
<path d="M468.609 134.578L477.895 125.065H406.393L403.195 120.689H392.877L402.576 134.578H468.609Z" fill="#085478"/>
<path d="M811.773 196.891V131.365L796.607 116.027H732.683M792.262 125.065H477.895M477.895 125.065L468.609 134.578H402.576L392.877 120.689H403.195L406.393 125.065H477.895Z" stroke="#085478" stroke-width="1.04341"/>
</g>
</g>
</g>
<g id="Vector Lights Mini">
<g id="Vector Light 84">
<path id="Vector Light 84_2" d="M52.0659 326.796L56.5526 326.796" stroke="#0799D5" stroke-width="0.626046"/>
</g>
<g id="Vector Light 83">
<path id="Vector Light 83_2" d="M51.9619 309.267H56.4486" stroke="#0799D5" stroke-width="0.626046"/>
</g>
<g id="Vector Light 82">
<path id="Vector Light 82_2" d="M51.9619 291.737H56.4486" stroke="#0799D5" stroke-width="0.626046"/>
</g>
<g id="Vector Light 81">
<path id="Vector Light 81_2" d="M829.72 326.17H834.206" stroke="#0799D5" stroke-width="0.626046"/>
</g>
<g id="Vector Light 80">
<path id="Vector Light 80_2" d="M829.72 309.058H834.206" stroke="#0799D5" stroke-width="0.626046"/>
</g>
<g id="Vector Light 79">
<path id="Vector Light 79_2" d="M829.72 291.737H834.206" stroke="#0799D5" stroke-width="0.626046"/>
</g>
</g>
<g id="Terminal Console" clip-path="url(#clip1_0_1)">
<g id="Frame 3">
<rect id="Terminal Console_2" x="8.76465" y="571.997" width="874.795" height="93.6982" fill="#012435"/>
</g>
</g>
<g id="Editor Console" clip-path="url(#clip2_0_1)">
<rect id="Editor Console_2" x="85.3506" y="140.86" width="715.362" height="350.377" fill="#01314C"/>
</g>
</g>
<defs>
<filter id="filter0_di_0_1" x="-1.14772" y="-0.313141" width="894.516" height="693.659" filterUnits="userSpaceOnUse" color-interpolation-filters="sRGB">
<feFlood flood-opacity="0" result="BackgroundImageFix"/>
<feColorMatrix in="SourceAlpha" type="matrix" values="0 0 0 0 0 0 0 0 0 0 0 0 0 0 0 0 0 0 127 0" result="hardAlpha"/>
<feOffset dy="0.834728"/>
<feGaussianBlur stdDeviation="0.417364"/>
<feComposite in2="hardAlpha" operator="out"/>
<feColorMatrix type="matrix" values="0 0 0 0 0 0 0 0 0 0 0 0 0 0 0 0 0 0 0.25 0"/>
<feBlend mode="normal" in2="BackgroundImageFix" result="effect1_dropShadow_0_1"/>
<feBlend mode="normal" in="SourceGraphic" in2="effect1_dropShadow_0_1" result="shape"/>
<feColorMatrix in="SourceAlpha" type="matrix" values="0 0 0 0 0 0 0 0 0 0 0 0 0 0 0 0 0 0 127 0" result="hardAlpha"/>
<feOffset dy="0.834728"/>
<feGaussianBlur stdDeviation="0.417364"/>
<feComposite in2="hardAlpha" operator="arithmetic" k2="-1" k3="1"/>
<feColorMatrix type="matrix" values="0 0 0 0 0 0 0 0 0 0 0 0 0 0 0 0 0 0 0.25 0"/>
<feBlend mode="normal" in2="shape" result="effect2_innerShadow_0_1"/>
</filter>
<linearGradient id="paint0_linear_0_1" x1="892.22" y1="345.682" x2="0" y2="345.682" gradientUnits="userSpaceOnUse">
<stop stop-color="#021420"/>
<stop offset="0.06" stop-color="#001C2B"/>
<stop offset="0.13" stop-color="#002435"/>
<stop offset="0.19" stop-color="#022435"/>
<stop offset="0.23" stop-color="#002538"/>
<stop offset="0.25" stop-color="#032840"/>
<stop offset="0.29" stop-color="#022B44"/>
<stop offset="0.33" stop-color="#002E45"/>
<stop offset="0.4" stop-color="#003048"/>
<stop offset="0.43" stop-color="#003149"/>
<stop offset="0.45" stop-color="#00314A"/>
<stop offset="0.5" stop-color="#01314C"/>
<stop offset="0.55" stop-color="#00314A"/>
<stop offset="0.57" stop-color="#003149"/>
<stop offset="0.6" stop-color="#003048"/>
<stop offset="0.67" stop-color="#002E45"/>
<stop offset="0.71" stop-color="#022B44"/>
<stop offset="0.75" stop-color="#032840"/>
<stop offset="0.77" stop-color="#002538"/>
<stop offset="0.81" stop-color="#022435"/>
<stop offset="0.87" stop-color="#002435"/>
<stop offset="0.935" stop-color="#001C2B"/>
<stop offset="1" stop-color="#021420"/>
</linearGradient>
<clipPath id="clip0_0_1">
<rect width="892.22" height="691.364" fill="white"/>
</clipPath>
<clipPath id="clip1_0_1">
<rect width="874.795" height="93.6982" fill="white" transform="translate(8.76465 571.997)"/>
</clipPath>
<clipPath id="clip2_0_1">
<rect width="715.362" height="350.377" fill="white" transform="translate(85.3506 140.86)"/>
</clipPath>
</defs>
</svg>
